<svg viewBox="0 0 330 200" xmlns="http://www.w3.org/2000/svg"><g><g><g><g><g><line x1="60" y1="178" x2="55" y2="178" style="visibility: inherit;" fill="rgb(0, 0, 0)" stroke="rgb(204, 204, 204)" stroke-width="1px"></line><line x1="60" y1="160.2" x2="55" y2="160.2" style="visibility: inherit;" fill="rgb(0, 0, 0)" stroke="rgb(204, 204, 204)" stroke-width="1px"></line><line x1="60" y1="142.4" x2="55" y2="142.4" style="visibility: inherit;" fill="rgb(0, 0, 0)" stroke="rgb(204, 204, 204)" stroke-width="1px"></line><line x1="60" y1="124.6" x2="55" y2="124.6" style="visibility: inherit;" fill="rgb(0, 0, 0)" stroke="rgb(204, 204, 204)" stroke-width="1px"></line><line x1="60" y1="106.8" x2="55" y2="106.8" style="visibility: inherit;" fill="rgb(0, 0, 0)" stroke="rgb(204, 204, 204)" stroke-width="1px"></line><line x1="60" y1="88.99999999999999" x2="55" y2="88.99999999999999" style="visibility: inherit;" fill="rgb(0, 0, 0)" stroke="rgb(204, 204, 204)" stroke-width="1px"></line><line x1="60" y1="71.19999999999999" x2="55" y2="71.19999999999999" style="visibility: inherit;" fill="rgb(0, 0, 0)" stroke="rgb(204, 204, 204)" stroke-width="1px"></line><line x1="60" y1="53.400000000000006" x2="55" y2="53.400000000000006" style="visibility: inherit;" fill="rgb(0, 0, 0)" stroke="rgb(204, 204, 204)" stroke-width="1px"></line><line x1="60" y1="35.599999999999994" x2="55" y2="35.599999999999994" style="visibility: inherit;" fill="rgb(0, 0, 0)" stroke="rgb(204, 204, 204)" stroke-width="1px"></line><line x1="60" y1="17.799999999999983" x2="55" y2="17.799999999999983" style="visibility: inherit;" fill="rgb(0, 0, 0)" stroke="rgb(204, 204, 204)" stroke-width="1px"></line><line x1="60" y1="0" x2="55" y2="0" style="visibility: inherit;" fill="rgb(0, 0, 0)" stroke="rgb(204, 204, 204)" stroke-width="1px"></line></g><g transform="translate(50, 0)"><text x="0" y="178" dx="0em" dy="0.3em" style="text-anchor: end; visibility: hidden; font-family: &quot;Helvetica Neue&quot;, sans-serif; font-size: 12px; font-weight: 200;" fill="rgb(50, 49, 63)" stroke="none" stroke-width="1px">-0.02</text><text x="0" y="160.2" dx="0em" dy="0.3em" style="text-anchor: end; visibility: inherit; font-family: &quot;Helvetica Neue&quot;, sans-serif; font-size: 12px; font-weight: 200;" fill="rgb(50, 49, 63)" stroke="none" stroke-width="1px">0</text><text x="0" y="142.4" dx="0em" dy="0.3em" style="text-anchor: end; visibility: hidden; font-family: &quot;Helvetica Neue&quot;, sans-serif; font-size: 12px; font-weight: 200;" fill="rgb(50, 49, 63)" stroke="none" stroke-width="1px">0.02</text><text x="0" y="124.6" dx="0em" dy="0.3em" style="text-anchor: end; visibility: inherit; font-family: &quot;Helvetica Neue&quot;, sans-serif; font-size: 12px; font-weight: 200;" fill="rgb(50, 49, 63)" stroke="none" stroke-width="1px">0.04</text><text x="0" y="106.8" dx="0em" dy="0.3em" style="text-anchor: end; visibility: hidden; font-family: &quot;Helvetica Neue&quot;, sans-serif; font-size: 12px; font-weight: 200;" fill="rgb(50, 49, 63)" stroke="none" stroke-width="1px">0.06</text><text x="0" y="88.99999999999999" dx="0em" dy="0.3em" style="text-anchor: end; visibility: inherit; font-family: &quot;Helvetica Neue&quot;, sans-serif; font-size: 12px; font-weight: 200;" fill="rgb(50, 49, 63)" stroke="none" stroke-width="1px">0.08</text><text x="0" y="71.19999999999999" dx="0em" dy="0.3em" style="text-anchor: end; visibility: hidden; font-family: &quot;Helvetica Neue&quot;, sans-serif; font-size: 12px; font-weight: 200;" fill="rgb(50, 49, 63)" stroke="none" stroke-width="1px">0.1</text><text x="0" y="53.400000000000006" dx="0em" dy="0.3em" style="text-anchor: end; visibility: inherit; font-family: &quot;Helvetica Neue&quot;, sans-serif; font-size: 12px; font-weight: 200;" fill="rgb(50, 49, 63)" stroke="none" stroke-width="1px">0.12</text><text x="0" y="35.599999999999994" dx="0em" dy="0.3em" style="text-anchor: end; visibility: hidden; font-family: &quot;Helvetica Neue&quot;, sans-serif; font-size: 12px; font-weight: 200;" fill="rgb(50, 49, 63)" stroke="none" stroke-width="1px">0.14</text><text x="0" y="17.799999999999983" dx="0em" dy="0.3em" style="text-anchor: end; visibility: inherit; font-family: &quot;Helvetica Neue&quot;, sans-serif; font-size: 12px; font-weight: 200;" fill="rgb(50, 49, 63)" stroke="none" stroke-width="1px">0.16</text><text x="0" y="0" dx="0em" dy="0.3em" style="text-anchor: end; visibility: hidden; font-family: &quot;Helvetica Neue&quot;, sans-serif; font-size: 12px; font-weight: 200;" fill="rgb(50, 49, 63)" stroke="none" stroke-width="1px">0.18</text></g><line x1="60" y1="0" x2="60" y2="178" fill="rgb(0, 0, 0)" stroke="rgb(204, 204, 204)" stroke-width="1px"></line></g></g><g transform="translate(60, 0)" clip-path="url(#clip_0)"><clipPath id="clip_0"><rect width="270" height="178"></rect></clipPath><g><g><g><line x1="0" y1="0" x2="0" y2="178" fill="rgb(0, 0, 0)" stroke="rgb(60, 60, 60)" stroke-width="1px" opacity="0.25"></line><line x1="24.545454545454547" y1="0" x2="24.545454545454547" y2="178" fill="rgb(0, 0, 0)" stroke="rgb(60, 60, 60)" stroke-width="1px" opacity="0.25"></line><line x1="49.09090909090909" y1="0" x2="49.09090909090909" y2="178" fill="rgb(0, 0, 0)" stroke="rgb(60, 60, 60)" stroke-width="1px" opacity="0.25"></line><line x1="73.63636363636363" y1="0" x2="73.63636363636363" y2="178" fill="rgb(0, 0, 0)" stroke="rgb(60, 60, 60)" stroke-width="1px" opacity="0.25"></line><line x1="98.18181818181819" y1="0" x2="98.18181818181819" y2="178" fill="rgb(0, 0, 0)" stroke="rgb(60, 60, 60)" stroke-width="1px" opacity="0.25"></line><line x1="122.72727272727272" y1="0" x2="122.72727272727272" y2="178" fill="rgb(0, 0, 0)" stroke="rgb(60, 60, 60)" stroke-width="1px" opacity="0.25"></line><line x1="147.27272727272725" y1="0" x2="147.27272727272725" y2="178" fill="rgb(0, 0, 0)" stroke="rgb(60, 60, 60)" stroke-width="1px" opacity="0.25"></line><line x1="171.8181818181818" y1="0" x2="171.8181818181818" y2="178" fill="rgb(0, 0, 0)" stroke="rgb(60, 60, 60)" stroke-width="1px" opacity="0.25"></line><line x1="196.36363636363637" y1="0" x2="196.36363636363637" y2="178" fill="rgb(0, 0, 0)" stroke="rgb(60, 60, 60)" stroke-width="1px" opacity="0.25"></line><line x1="220.90909090909093" y1="0" x2="220.90909090909093" y2="178" fill="rgb(0, 0, 0)" stroke="rgb(60, 60, 60)" stroke-width="1px" opacity="0.25"></line><line x1="245.45454545454544" y1="0" x2="245.45454545454544" y2="178" fill="rgb(0, 0, 0)" stroke="rgb(60, 60, 60)" stroke-width="1px" opacity="0.25"></line><line x1="270" y1="0" x2="270" y2="178" fill="rgb(0, 0, 0)" stroke="rgb(60, 60, 60)" stroke-width="1px" opacity="0.25"></line></g><g><line x1="0" y1="178" x2="270" y2="178" fill="rgb(0, 0, 0)" stroke="rgb(60, 60, 60)" stroke-width="1px" opacity="0.25"></line><line x1="0" y1="160.2" x2="270" y2="160.2" fill="rgb(0, 0, 0)" stroke="rgb(60, 60, 60)" stroke-width="1px" opacity="0.25"></line><line x1="0" y1="142.4" x2="270" y2="142.4" fill="rgb(0, 0, 0)" stroke="rgb(60, 60, 60)" stroke-width="1px" opacity="0.25"></line><line x1="0" y1="124.6" x2="270" y2="124.6" fill="rgb(0, 0, 0)" stroke="rgb(60, 60, 60)" stroke-width="1px" opacity="0.25"></line><line x1="0" y1="106.8" x2="270" y2="106.8" fill="rgb(0, 0, 0)" stroke="rgb(60, 60, 60)" stroke-width="1px" opacity="0.25"></line><line x1="0" y1="88.99999999999999" x2="270" y2="88.99999999999999" fill="rgb(0, 0, 0)" stroke="rgb(60, 60, 60)" stroke-width="1px" opacity="0.25"></line><line x1="0" y1="71.19999999999999" x2="270" y2="71.19999999999999" fill="rgb(0, 0, 0)" stroke="rgb(60, 60, 60)" stroke-width="1px" opacity="0.25"></line><line x1="0" y1="53.400000000000006" x2="270" y2="53.400000000000006" fill="rgb(0, 0, 0)" stroke="rgb(60, 60, 60)" stroke-width="1px" opacity="0.25"></line><line x1="0" y1="35.599999999999994" x2="270" y2="35.599999999999994" fill="rgb(0, 0, 0)" stroke="rgb(60, 60, 60)" stroke-width="1px" opacity="0.25"></line><line x1="0" y1="17.799999999999983" x2="270" y2="17.799999999999983" fill="rgb(0, 0, 0)" stroke="rgb(60, 60, 60)" stroke-width="1px" opacity="0.25"></line><line x1="0" y1="0" x2="270" y2="0" fill="rgb(0, 0, 0)" stroke="rgb(60, 60, 60)" stroke-width="1px" opacity="0.25"></line></g></g></g><g><g><line x1="0" y1="160.2" x2="270" y2="160.2" fill="rgb(0, 0, 0)" stroke="rgb(153, 153, 153)" stroke-width="1.5px"></line></g></g><g><g><line x1="24.545454545454547" y1="0" x2="24.545454545454547" y2="178" fill="rgb(0, 0, 0)" stroke="rgb(153, 153, 153)" stroke-width="1.5px"></line></g></g><g><g><g><g><g><path stroke="rgb(51, 187, 238)" stroke-width="2px" d="M36.81818181818181,-42.75432363089607L39.27272727272727,22.690931351268347L41.72727272727273,63.807719400112916L44.18181818181818,90.04784981546011L46.63636363636364,107.60027901587682L49.09090909090909,119.81579205335254L51.54545454545455,128.25503066205326L54,133.34601512160543L56.45454545454545,135.3746777915065L58.90909090909091,137.92112009685252L61.36363636363636,140.04398585778074L63.81818181818182,141.9022854799137L66.27272727272727,143.5048695485475L68.72727272727272,144.5379563737916L71.18181818181817,145.14376311137391L73.63636363636363,145.84390483136252L76.09090909090908,146.33209454079693L78.54545454545455,146.38895054960517L81,146.15052447759516L83.45454545454545,146.78869376475615L85.9090909090909,147.32972180478654L88.36363636363636,147.26036816015596L90.81818181818181,145.2891711890311L93.27272727272728,144.99528798663036L95.72727272727273,145.6859366249075L98.18181818181819,146.52213324459294L100.63636363636364,147.2461156178484L103.0909090909091,147.3000500543663L105.54545454545455,147.13413607287947L108,147.56980905879877L110.45454545454547,147.90802752118128L112.9090909090909,148.34799492292598L115.36363636363636,148.39696819112459L117.81818181818181,148.46733401301182L120.27272727272727,148.63573925121042L122.72727272727272,148.4724159433967L125.18181818181817,148.33637329459728L127.63636363636364,148.4745429171336L130.0909090909091,148.55635025522145L132.54545454545453,148.75197432249254L135,148.76878828416446L137.45454545454544,149.16602508997747L139.9090909090909,149.13103979965794L142.36363636363635,148.75900487925816L144.8181818181818,148.6249246069052L147.27272727272725,148.6312728291369L149.72727272727272,148.4397455001629L152.18181818181816,148.295928626577L154.63636363636365,148.05381451401496L157.0909090909091,148.0096970974917L159.54545454545456,147.98230576778582L162,148.30553091445893L164.45454545454547,148.1830984238456L166.9090909090909,148.42006531114754L169.36363636363637,147.74158850199126L171.8181818181818,147.52089063768815L174.27272727272728,147.71657036886378L176.72727272727272,148.42559004125897L179.1818181818182,148.60211901493994L181.63636363636363,148.7095247695172L184.09090909090907,149.4227133988955L186.54545454545456,149.66231655096067L189,149.68047051636492L191.45454545454547,149.82315742916924L193.9090909090909,149.35612621319228L196.36363636363637,149.318239653771L198.8181818181818,149.04365774073966L201.27272727272728,149.05065212753266L203.72727272727272,149.2669573149525L206.1818181818182,149.32782402828812L208.63636363636363,149.4718161505501L211.0909090909091,149.4283287012873L213.54545454545453,148.53407308376393L216,148.40396747835135L218.45454545454544,147.99513597327916L220.90909090909093,148.3289591457116L223.36363636363637,148.88611302224172L225.8181818181818,149.31309732306897L228.27272727272728,149.76429249974782L230.72727272727272,150.09109035076978L233.1818181818182,150.26988229829064L235.63636363636363,150.36497751268163L238.0909090909091,150.30361301642697L240.54545454545453,150.7038314444909L243,150.65856860127946L245.45454545454544,150.8643407998542L247.9090909090909,150.69243983732616L250.36363636363635,150.79590522179896L252.81818181818184,150.78864638896576L255.27272727272728,150.79543802359893L257.72727272727275,150.6562588019171L260.1818181818182,150.8442911348292L262.6363636363636,150.7162436108963L265.09090909090907,149.53891963296536L267.54545454545456,149.63460875874804L270,150.0062895713703" style="fill: none;" fill="none"></path></g></g></g></g><g opacity="0.2"><g><g><g><path stroke="rgb(51, 187, 238)" stroke-width="2px" d="M31.90909090909091,-56.06542523503305L34.36363636363636,79.14317425787448L36.81818181818181,121.41971875429152L39.27272727272727,132.70283800065516L41.72727272727273,136.2308820568025L44.18181818181818,137.6537606537342L46.63636363636364,140.0539499938488L49.09090909090909,142.68035149648784L51.54545454545455,144.1777560904622L54,143.0015463426709L56.45454545454545,139.2353493206203L58.90909090909091,142.77797995582222L61.36363636363636,144.09888014644383L63.81818181818182,145.45523969903587L66.27272727272727,146.57084278278052L68.72727272727272,146.51521767005323L71.18181818181817,146.30355312936007L73.63636363636363,147.18453426361083L76.09090909090908,147.2669884700328L78.54545454545455,146.49783943295478L81,145.69387507140635L83.45454545454545,148.01099849380552L85.9090909090909,148.36599163226782L88.36363636363636,147.12752824164926L90.81818181818181,141.51350640207528L93.27272727272728,144.43237552866339L95.72727272727273,147.0088305555284L98.18181818181819,148.1238194413483L100.63636363636364,148.6328643605113L103.0909090909091,147.40335864461957L105.54545454545455,146.8163362842053L108,148.40431890897452L110.45454545454547,148.55586830973624L112.9090909090909,149.1907309692353L115.36363636363636,148.4907741051167L117.81818181818181,148.60211633592843L120.27272727272727,148.95831134617328L122.72727272727272,148.15957802794873L125.18181818181817,148.07579015828668L127.63636363636364,148.7392001736909L130.0909090909091,148.7130482725799L132.54545454545453,149.12668280750512L135,148.80099461860954L137.45454545454544,149.92691307775675L139.9090909090909,149.06402715928851L142.36363636363635,148.04638988785445L144.8181818181818,148.36810029558836L147.27272727272725,148.64343254342674L149.72727272727272,148.0728841152042L152.18181818181816,148.0204543236643L154.63636363636365,147.59005657844244L157.0909090909091,147.9251923084259L159.54545454545456,147.92983899340032L162,148.92465313412248L164.45454545454547,147.9485848776996L166.9090909090909,148.87396398447453L169.36363636363637,146.44199881218373L171.8181818181818,147.09815449528395L174.27272727272728,148.09138548076152L176.72727272727272,149.7836831163615L179.1818181818182,148.94025177210568L181.63636363636363,148.9152553256601L184.09090909090907,150.78879191055893L186.54545454545456,150.12126486264168L189,149.71524356380104L191.45454545454547,150.09646734669803L193.9090909090909,148.46155038550495L196.36363636363637,149.2456697717309L198.8181818181818,148.5177092950791L201.27272727272728,149.06404953896998L203.72727272727272,149.6812794961035L206.1818181818182,149.4444112896919L208.63636363636363,149.74762613400816L211.0909090909091,149.3450305841863L213.54545454545453,146.8211694665253L216,148.154756449908L218.45454545454544,147.212038892135L220.90909090909093,148.9683813739568L223.36363636363637,149.95331447087227L225.8181818181818,150.13096521124243L228.27272727272728,150.62853515595197L230.72727272727272,150.71705591380595L233.1818181818182,150.61234967298805L235.63636363636363,150.54712782129644L238.0909090909091,150.18607227578758L240.54545454545453,151.4704305909574L243,150.57186980247496L245.45454545454544,151.25848754756151L247.9090909090909,150.36317181289195L250.36363636363635,150.9940881885588L252.81818181818184,150.77474244385957L255.27272727272728,150.80844707302748L257.72727272727275,150.3896676979959L260.1818181818182,151.2044580232352L262.6363636363636,150.47097473852335L265.09090909090907,147.2838121883571L267.54545454545456,149.81789667606353L270,150.71822628825902" style="fill: none;" fill="none"></path></g></g></g></g></g></g><g transform="translate(60, 178)" clip-path="url(#clip_1)"><clipPath id="clip_1"><rect width="270" height="22"></rect></clipPath><g><g><line x1="0" y1="0" x2="0" y2="5" style="visibility: inherit;" fill="rgb(0, 0, 0)" stroke="rgb(204, 204, 204)" stroke-width="1px"></line><line x1="24.545454545454547" y1="0" x2="24.545454545454547" y2="5" style="visibility: inherit;" fill="rgb(0, 0, 0)" stroke="rgb(204, 204, 204)" stroke-width="1px"></line><line x1="49.09090909090909" y1="0" x2="49.09090909090909" y2="5" style="visibility: inherit;" fill="rgb(0, 0, 0)" stroke="rgb(204, 204, 204)" stroke-width="1px"></line><line x1="73.63636363636363" y1="0" x2="73.63636363636363" y2="5" style="visibility: inherit;" fill="rgb(0, 0, 0)" stroke="rgb(204, 204, 204)" stroke-width="1px"></line><line x1="98.18181818181819" y1="0" x2="98.18181818181819" y2="5" style="visibility: inherit;" fill="rgb(0, 0, 0)" stroke="rgb(204, 204, 204)" stroke-width="1px"></line><line x1="122.72727272727272" y1="0" x2="122.72727272727272" y2="5" style="visibility: inherit;" fill="rgb(0, 0, 0)" stroke="rgb(204, 204, 204)" stroke-width="1px"></line><line x1="147.27272727272725" y1="0" x2="147.27272727272725" y2="5" style="visibility: inherit;" fill="rgb(0, 0, 0)" stroke="rgb(204, 204, 204)" stroke-width="1px"></line><line x1="171.8181818181818" y1="0" x2="171.8181818181818" y2="5" style="visibility: inherit;" fill="rgb(0, 0, 0)" stroke="rgb(204, 204, 204)" stroke-width="1px"></line><line x1="196.36363636363637" y1="0" x2="196.36363636363637" y2="5" style="visibility: inherit;" fill="rgb(0, 0, 0)" stroke="rgb(204, 204, 204)" stroke-width="1px"></line><line x1="220.90909090909093" y1="0" x2="220.90909090909093" y2="5" style="visibility: inherit;" fill="rgb(0, 0, 0)" stroke="rgb(204, 204, 204)" stroke-width="1px"></line><line x1="245.45454545454544" y1="0" x2="245.45454545454544" y2="5" style="visibility: inherit;" fill="rgb(0, 0, 0)" stroke="rgb(204, 204, 204)" stroke-width="1px"></line><line x1="270" y1="0" x2="270" y2="5" style="visibility: inherit;" fill="rgb(0, 0, 0)" stroke="rgb(204, 204, 204)" stroke-width="1px"></line></g><g transform="translate(0, 8)"><text x="0" y="0" dx="0em" dy="0.95em" style="text-anchor: middle; visibility: hidden; font-family: &quot;Helvetica Neue&quot;, sans-serif; font-size: 12px; font-weight: 200;" fill="rgb(50, 49, 63)" stroke="none" stroke-width="1px">-10</text><text x="24.545454545454547" y="0" dx="0em" dy="0.95em" style="text-anchor: middle; visibility: inherit; font-family: &quot;Helvetica Neue&quot;, sans-serif; font-size: 12px; font-weight: 200;" fill="rgb(50, 49, 63)" stroke="none" stroke-width="1px">0</text><text x="49.09090909090909" y="0" dx="0em" dy="0.95em" style="text-anchor: middle; visibility: inherit; font-family: &quot;Helvetica Neue&quot;, sans-serif; font-size: 12px; font-weight: 200;" fill="rgb(50, 49, 63)" stroke="none" stroke-width="1px">10</text><text x="73.63636363636363" y="0" dx="0em" dy="0.95em" style="text-anchor: middle; visibility: inherit; font-family: &quot;Helvetica Neue&quot;, sans-serif; font-size: 12px; font-weight: 200;" fill="rgb(50, 49, 63)" stroke="none" stroke-width="1px">20</text><text x="98.18181818181819" y="0" dx="0em" dy="0.95em" style="text-anchor: middle; visibility: inherit; font-family: &quot;Helvetica Neue&quot;, sans-serif; font-size: 12px; font-weight: 200;" fill="rgb(50, 49, 63)" stroke="none" stroke-width="1px">30</text><text x="122.72727272727272" y="0" dx="0em" dy="0.95em" style="text-anchor: middle; visibility: inherit; font-family: &quot;Helvetica Neue&quot;, sans-serif; font-size: 12px; font-weight: 200;" fill="rgb(50, 49, 63)" stroke="none" stroke-width="1px">40</text><text x="147.27272727272725" y="0" dx="0em" dy="0.95em" style="text-anchor: middle; visibility: inherit; font-family: &quot;Helvetica Neue&quot;, sans-serif; font-size: 12px; font-weight: 200;" fill="rgb(50, 49, 63)" stroke="none" stroke-width="1px">50</text><text x="171.8181818181818" y="0" dx="0em" dy="0.95em" style="text-anchor: middle; visibility: inherit; font-family: &quot;Helvetica Neue&quot;, sans-serif; font-size: 12px; font-weight: 200;" fill="rgb(50, 49, 63)" stroke="none" stroke-width="1px">60</text><text x="196.36363636363637" y="0" dx="0em" dy="0.95em" style="text-anchor: middle; visibility: inherit; font-family: &quot;Helvetica Neue&quot;, sans-serif; font-size: 12px; font-weight: 200;" fill="rgb(50, 49, 63)" stroke="none" stroke-width="1px">70</text><text x="220.90909090909093" y="0" dx="0em" dy="0.95em" style="text-anchor: middle; visibility: inherit; font-family: &quot;Helvetica Neue&quot;, sans-serif; font-size: 12px; font-weight: 200;" fill="rgb(50, 49, 63)" stroke="none" stroke-width="1px">80</text><text x="245.45454545454544" y="0" dx="0em" dy="0.95em" style="text-anchor: middle; visibility: inherit; font-family: &quot;Helvetica Neue&quot;, sans-serif; font-size: 12px; font-weight: 200;" fill="rgb(50, 49, 63)" stroke="none" stroke-width="1px">90</text><text x="270" y="0" dx="0em" dy="0.95em" style="text-anchor: middle; visibility: hidden; font-family: &quot;Helvetica Neue&quot;, sans-serif; font-size: 12px; font-weight: 200;" fill="rgb(50, 49, 63)" stroke="none" stroke-width="1px">100</text></g><line x1="0" y1="0" x2="270" y2="0" fill="rgb(0, 0, 0)" stroke="rgb(204, 204, 204)" stroke-width="1px"></line></g></g></g></g></svg>