<svg viewBox="0 0 330 200" xmlns="http://www.w3.org/2000/svg"><g><g><g><g><g><line x1="60" y1="178" x2="55" y2="178" style="visibility: inherit;" fill="rgb(0, 0, 0)" stroke="rgb(204, 204, 204)" stroke-width="1px"></line><line x1="60" y1="161.8181818181818" x2="55" y2="161.8181818181818" style="visibility: inherit;" fill="rgb(0, 0, 0)" stroke="rgb(204, 204, 204)" stroke-width="1px"></line><line x1="60" y1="145.63636363636363" x2="55" y2="145.63636363636363" style="visibility: inherit;" fill="rgb(0, 0, 0)" stroke="rgb(204, 204, 204)" stroke-width="1px"></line><line x1="60" y1="129.45454545454547" x2="55" y2="129.45454545454547" style="visibility: inherit;" fill="rgb(0, 0, 0)" stroke="rgb(204, 204, 204)" stroke-width="1px"></line><line x1="60" y1="113.27272727272727" x2="55" y2="113.27272727272727" style="visibility: inherit;" fill="rgb(0, 0, 0)" stroke="rgb(204, 204, 204)" stroke-width="1px"></line><line x1="60" y1="97.09090909090908" x2="55" y2="97.09090909090908" style="visibility: inherit;" fill="rgb(0, 0, 0)" stroke="rgb(204, 204, 204)" stroke-width="1px"></line><line x1="60" y1="80.90909090909089" x2="55" y2="80.90909090909089" style="visibility: inherit;" fill="rgb(0, 0, 0)" stroke="rgb(204, 204, 204)" stroke-width="1px"></line><line x1="60" y1="64.72727272727275" x2="55" y2="64.72727272727275" style="visibility: inherit;" fill="rgb(0, 0, 0)" stroke="rgb(204, 204, 204)" stroke-width="1px"></line><line x1="60" y1="48.54545454545453" x2="55" y2="48.54545454545453" style="visibility: inherit;" fill="rgb(0, 0, 0)" stroke="rgb(204, 204, 204)" stroke-width="1px"></line><line x1="60" y1="32.363636363636374" x2="55" y2="32.363636363636374" style="visibility: inherit;" fill="rgb(0, 0, 0)" stroke="rgb(204, 204, 204)" stroke-width="1px"></line><line x1="60" y1="16.181818181818187" x2="55" y2="16.181818181818187" style="visibility: inherit;" fill="rgb(0, 0, 0)" stroke="rgb(204, 204, 204)" stroke-width="1px"></line><line x1="60" y1="0" x2="55" y2="0" style="visibility: inherit;" fill="rgb(0, 0, 0)" stroke="rgb(204, 204, 204)" stroke-width="1px"></line></g><g transform="translate(50, 0)"><text x="0" y="178" dx="0em" dy="0.3em" style="text-anchor: end; visibility: hidden; font-family: &quot;Helvetica Neue&quot;, sans-serif; font-size: 12px; font-weight: 200;" fill="rgb(50, 49, 63)" stroke="none" stroke-width="1px">-5e-3</text><text x="0" y="161.8181818181818" dx="0em" dy="0.3em" style="text-anchor: end; visibility: inherit; font-family: &quot;Helvetica Neue&quot;, sans-serif; font-size: 12px; font-weight: 200;" fill="rgb(50, 49, 63)" stroke="none" stroke-width="1px">0</text><text x="0" y="145.63636363636363" dx="0em" dy="0.3em" style="text-anchor: end; visibility: hidden; font-family: &quot;Helvetica Neue&quot;, sans-serif; font-size: 12px; font-weight: 200;" fill="rgb(50, 49, 63)" stroke="none" stroke-width="1px">5e-3</text><text x="0" y="129.45454545454547" dx="0em" dy="0.3em" style="text-anchor: end; visibility: inherit; font-family: &quot;Helvetica Neue&quot;, sans-serif; font-size: 12px; font-weight: 200;" fill="rgb(50, 49, 63)" stroke="none" stroke-width="1px">0.01</text><text x="0" y="113.27272727272727" dx="0em" dy="0.3em" style="text-anchor: end; visibility: hidden; font-family: &quot;Helvetica Neue&quot;, sans-serif; font-size: 12px; font-weight: 200;" fill="rgb(50, 49, 63)" stroke="none" stroke-width="1px">0.015</text><text x="0" y="97.09090909090908" dx="0em" dy="0.3em" style="text-anchor: end; visibility: inherit; font-family: &quot;Helvetica Neue&quot;, sans-serif; font-size: 12px; font-weight: 200;" fill="rgb(50, 49, 63)" stroke="none" stroke-width="1px">0.02</text><text x="0" y="80.90909090909089" dx="0em" dy="0.3em" style="text-anchor: end; visibility: hidden; font-family: &quot;Helvetica Neue&quot;, sans-serif; font-size: 12px; font-weight: 200;" fill="rgb(50, 49, 63)" stroke="none" stroke-width="1px">0.025</text><text x="0" y="64.72727272727275" dx="0em" dy="0.3em" style="text-anchor: end; visibility: inherit; font-family: &quot;Helvetica Neue&quot;, sans-serif; font-size: 12px; font-weight: 200;" fill="rgb(50, 49, 63)" stroke="none" stroke-width="1px">0.03</text><text x="0" y="48.54545454545453" dx="0em" dy="0.3em" style="text-anchor: end; visibility: hidden; font-family: &quot;Helvetica Neue&quot;, sans-serif; font-size: 12px; font-weight: 200;" fill="rgb(50, 49, 63)" stroke="none" stroke-width="1px">0.035</text><text x="0" y="32.363636363636374" dx="0em" dy="0.3em" style="text-anchor: end; visibility: inherit; font-family: &quot;Helvetica Neue&quot;, sans-serif; font-size: 12px; font-weight: 200;" fill="rgb(50, 49, 63)" stroke="none" stroke-width="1px">0.04</text><text x="0" y="16.181818181818187" dx="0em" dy="0.3em" style="text-anchor: end; visibility: hidden; font-family: &quot;Helvetica Neue&quot;, sans-serif; font-size: 12px; font-weight: 200;" fill="rgb(50, 49, 63)" stroke="none" stroke-width="1px">0.045</text><text x="0" y="0" dx="0em" dy="0.3em" style="text-anchor: end; visibility: hidden; font-family: &quot;Helvetica Neue&quot;, sans-serif; font-size: 12px; font-weight: 200;" fill="rgb(50, 49, 63)" stroke="none" stroke-width="1px">0.05</text></g><line x1="60" y1="0" x2="60" y2="178" fill="rgb(0, 0, 0)" stroke="rgb(204, 204, 204)" stroke-width="1px"></line></g></g><g transform="translate(60, 0)" clip-path="url(#clip_0)"><clipPath id="clip_0"><rect width="270" height="178"></rect></clipPath><g><g><g><line x1="0" y1="0" x2="0" y2="178" fill="rgb(0, 0, 0)" stroke="rgb(60, 60, 60)" stroke-width="1px" opacity="0.25"></line><line x1="22.5" y1="0" x2="22.5" y2="178" fill="rgb(0, 0, 0)" stroke="rgb(60, 60, 60)" stroke-width="1px" opacity="0.25"></line><line x1="45" y1="0" x2="45" y2="178" fill="rgb(0, 0, 0)" stroke="rgb(60, 60, 60)" stroke-width="1px" opacity="0.25"></line><line x1="67.5" y1="0" x2="67.5" y2="178" fill="rgb(0, 0, 0)" stroke="rgb(60, 60, 60)" stroke-width="1px" opacity="0.25"></line><line x1="90" y1="0" x2="90" y2="178" fill="rgb(0, 0, 0)" stroke="rgb(60, 60, 60)" stroke-width="1px" opacity="0.25"></line><line x1="112.5" y1="0" x2="112.5" y2="178" fill="rgb(0, 0, 0)" stroke="rgb(60, 60, 60)" stroke-width="1px" opacity="0.25"></line><line x1="135" y1="0" x2="135" y2="178" fill="rgb(0, 0, 0)" stroke="rgb(60, 60, 60)" stroke-width="1px" opacity="0.25"></line><line x1="157.5" y1="0" x2="157.5" y2="178" fill="rgb(0, 0, 0)" stroke="rgb(60, 60, 60)" stroke-width="1px" opacity="0.25"></line><line x1="180" y1="0" x2="180" y2="178" fill="rgb(0, 0, 0)" stroke="rgb(60, 60, 60)" stroke-width="1px" opacity="0.25"></line><line x1="202.5" y1="0" x2="202.5" y2="178" fill="rgb(0, 0, 0)" stroke="rgb(60, 60, 60)" stroke-width="1px" opacity="0.25"></line><line x1="225" y1="0" x2="225" y2="178" fill="rgb(0, 0, 0)" stroke="rgb(60, 60, 60)" stroke-width="1px" opacity="0.25"></line><line x1="247.5" y1="0" x2="247.5" y2="178" fill="rgb(0, 0, 0)" stroke="rgb(60, 60, 60)" stroke-width="1px" opacity="0.25"></line><line x1="270" y1="0" x2="270" y2="178" fill="rgb(0, 0, 0)" stroke="rgb(60, 60, 60)" stroke-width="1px" opacity="0.25"></line></g><g><line x1="0" y1="178" x2="270" y2="178" fill="rgb(0, 0, 0)" stroke="rgb(60, 60, 60)" stroke-width="1px" opacity="0.25"></line><line x1="0" y1="161.8181818181818" x2="270" y2="161.8181818181818" fill="rgb(0, 0, 0)" stroke="rgb(60, 60, 60)" stroke-width="1px" opacity="0.25"></line><line x1="0" y1="145.63636363636363" x2="270" y2="145.63636363636363" fill="rgb(0, 0, 0)" stroke="rgb(60, 60, 60)" stroke-width="1px" opacity="0.25"></line><line x1="0" y1="129.45454545454547" x2="270" y2="129.45454545454547" fill="rgb(0, 0, 0)" stroke="rgb(60, 60, 60)" stroke-width="1px" opacity="0.25"></line><line x1="0" y1="113.27272727272727" x2="270" y2="113.27272727272727" fill="rgb(0, 0, 0)" stroke="rgb(60, 60, 60)" stroke-width="1px" opacity="0.25"></line><line x1="0" y1="97.09090909090908" x2="270" y2="97.09090909090908" fill="rgb(0, 0, 0)" stroke="rgb(60, 60, 60)" stroke-width="1px" opacity="0.25"></line><line x1="0" y1="80.90909090909089" x2="270" y2="80.90909090909089" fill="rgb(0, 0, 0)" stroke="rgb(60, 60, 60)" stroke-width="1px" opacity="0.25"></line><line x1="0" y1="64.72727272727275" x2="270" y2="64.72727272727275" fill="rgb(0, 0, 0)" stroke="rgb(60, 60, 60)" stroke-width="1px" opacity="0.25"></line><line x1="0" y1="48.54545454545453" x2="270" y2="48.54545454545453" fill="rgb(0, 0, 0)" stroke="rgb(60, 60, 60)" stroke-width="1px" opacity="0.25"></line><line x1="0" y1="32.363636363636374" x2="270" y2="32.363636363636374" fill="rgb(0, 0, 0)" stroke="rgb(60, 60, 60)" stroke-width="1px" opacity="0.25"></line><line x1="0" y1="16.181818181818187" x2="270" y2="16.181818181818187" fill="rgb(0, 0, 0)" stroke="rgb(60, 60, 60)" stroke-width="1px" opacity="0.25"></line><line x1="0" y1="0" x2="270" y2="0" fill="rgb(0, 0, 0)" stroke="rgb(60, 60, 60)" stroke-width="1px" opacity="0.25"></line></g></g></g><g><g><line x1="0" y1="161.8181818181818" x2="270" y2="161.8181818181818" fill="rgb(0, 0, 0)" stroke="rgb(153, 153, 153)" stroke-width="1.5px"></line></g></g><g><g><line x1="22.5" y1="0" x2="22.5" y2="178" fill="rgb(0, 0, 0)" stroke="rgb(153, 153, 153)" stroke-width="1.5px"></line></g></g><g><g><g><g><g><path stroke="rgb(255, 112, 67)" stroke-width="2px" d="M31.5,-23.397684025632458L33.75,33.977372434876884L36,71.96888669288592L38.25,88.85097343976673L40.5,106.34383843930502L42.75,117.28262450967735L45,112.64746404169756L47.25,121.68594114279244L49.5,116.36375036607973L51.75,119.88560552507329L54,125.46042204945965L56.25,127.64125175176031L58.5,133.3994314141926L60.75,134.6652056246387L63,116.13184457740671L65.25,124.28016183405454L67.5,130.96812633256567L69.75,135.41734836387923L72,137.4723792187001L74.25,137.65519493005377L76.5,140.23206572421486L78.75,141.85725995536427L81,140.62616318994827L83.25,140.37983406504878L85.5,138.00607255062897L87.75,140.0912121911765L90,139.76194738742313L92.25,140.13082146545167L94.5,141.25484115369625L96.75,142.1208423428511L99,142.62621854430475L101.25,134.68331328283088L103.5,137.16839641661352L105.75,139.79439750351764L108,141.47308858616753L110.25,142.0188269691804L112.5,141.75135534379837L114.75,142.50329099744582L117,143.45083476829112L119.25,144.3334515367652L121.5,140.3709694931471L123.75,141.92830855089684L126,143.67454816260243L128.25,141.95776592295192L130.5,140.528673806398L132.75,142.0086631068522L135,141.80176249349788L137.25,140.36610645876425L139.5,142.405685375583L141.75,140.72818826352244L144,141.6564625727823L146.25,142.8018827916456L148.5,142.97447921503195L150.75,143.3707061746358L153,137.86544345821716L155.25,140.56008436902832L157.5,140.94628965505947L159.75,142.42001737536683L162,142.99645546743625L164.25,139.47210143484932L166.5,140.58171896876055L168.75,140.51569780594224L171,142.1087113075573L173.25,143.338531353873L175.5,140.88351612902107L177.75,140.7679737158931L180,142.89573399560447L182.25,143.03205993999364L184.5,143.9044238015412L186.75,141.73132733537767L189,143.76236727621327L191.25,143.52506028483236L193.5,139.46354852084306L195.75,139.83862483230436L198,141.5058510125634L200.25,142.69563056504214L202.5,143.0943927757061L204.75,143.13062961417256L207,144.4131379779223L209.25,145.47016558350106L211.5,145.44048037332718L213.75,145.85975312413245L216,144.48056165583574L218.25,144.94138191539105L220.5,145.43581604912583L222.75,145.35031537608907L225,145.78969407864707L227.25,146.53200889570064L229.5,146.6988536237833L231.75,146.04231609952112L234,146.82391361795825L236.25,146.84124352142143L238.5,147.26018077642746L240.75,147.17567044230367L243,144.96085704429322L245.25,145.9594051776973L247.5,145.9975416062204" style="fill: none;" fill="none"></path></g><g><path stroke="rgb(187, 187, 187)" stroke-width="2px" d="M31.5,-7.696662671019055L33.75,30.33485289733207L36,53.73342755874907L38.25,70.54737470991235L40.5,81.68335715093636L42.75,87.70548343934239L45,88.76478696723512L47.25,95.15535309308878L49.5,96.88598144380394L51.75,98.45964573513224L54,101.28813538206144L56.25,102.80071472048284L58.5,101.29018517016924L60.75,104.32577318707554L63,105.12955567841725L65.25,106.33413719445521L67.5,107.95557260067945L69.75,106.7445467304948L72,108.04034664257837L74.25,108.66286712993626L76.5,109.4289609907085L78.75,110.1576136862313L81,108.8160691991198L83.25,108.0949140127095L85.5,108.1286752177932L87.75,107.13252891410615L90,108.48554590499846L92.25,108.9844869461763L94.5,109.07408826825143L96.75,110.09902814057622L99,110.32935317056788L101.25,110.99108157314473L103.5,112.02387289337112L105.75,111.4246046723432L108,112.78883146717709L110.25,110.83827212158609L112.5,111.22537920627573L114.75,112.9703023462856L117,112.45440084070387L119.25,113.5712153303686L121.5,113.92014911332964L123.75,114.45797791548742L126,114.85480216410832L128.25,115.91418589363896L130.5,116.19127833331413L132.75,116.00962463443318L135,114.53689716005117L137.25,114.51532871813758L139.5,114.58395712644871L141.75,110.12706537120881L144,111.86806830244484L146.25,114.1583515144026L148.5,115.22002966257622L150.75,113.00026300030196L153,111.42871884063554L155.25,112.14760245751572L157.5,111.76475311073716L159.75,113.41196907170017L162,114.40664060797346L164.25,115.32690355780068L166.5,115.3445219292683L168.75,115.54539149870443L171,115.73205685447785L173.25,116.10245060504099L175.5,115.09812181239798L177.75,116.17226336750022L180,115.85386593977964L182.25,115.22022513999963L184.5,115.18290769241534L186.75,113.6037409505332L189,114.1132654470114L191.25,115.84142588562796L193.5,109.28656739859615L195.75,110.97556064392633L198,111.65083725288783L200.25,111.08940089724544L202.5,113.53924190376115L204.75,114.50886066600884L207,115.49624646544754L209.25,116.62402189956546L211.5,116.96277101923698L213.75,117.38201541614403L216,117.48497795698913L218.25,115.98356659809468L220.5,115.24063557750046L222.75,113.58088482957493L225,115.23538563809004L227.25,116.35975032556964L229.5,117.20550748599379L231.75,116.9267683108321L234,116.85693577085375L236.25,116.29747098348912L238.5,115.76962912328044L240.75,116.26655971416972L243,116.3261708091284L245.25,116.8957199387087L247.5,116.0867558540862" style="fill: none;" fill="none"></path></g><g><path stroke="rgb(0, 153, 136)" stroke-width="2px" d="M31.5,-20.90960769751092L33.75,33.26235889335754L36,65.777834592747L38.25,87.33353588430842L40.5,103.7430665674146L42.75,111.50764631620864L45,118.38585250963939L47.25,124.46796079044941L49.5,122.53181445490202L51.75,125.89984977893685L54,130.52273705297824L56.25,132.01272348908617L58.5,133.76316348506634L60.75,135.73079447933227L63,134.71323434467206L65.25,136.56480815984207L67.5,137.58090540012262L69.75,136.68278623949217L72,137.36577410304665L74.25,139.63946026883386L76.5,138.6287263549632L78.75,140.22829116577128L81,139.47245393643436L83.25,139.88117860888613L85.5,140.939200233478L87.75,142.41059652585292L90,142.35886971224284L92.25,143.39820719735988L94.5,141.48365383142203L96.75,141.86830771583934L99,142.92566931391707L101.25,144.20240633065674L103.5,142.7778589001835L105.75,143.55982309609817L108,136.2630222735998L110.25,139.26334792017965L112.5,141.5690298616342L114.75,142.61182063042423L117,142.28535940265186L119.25,141.79080981118034L121.5,141.19588383769414L123.75,143.07218319432138L126,141.9810919502698L128.25,142.50595209382385L130.5,143.7014837088751L132.75,144.8844371639145L135,144.945178007638L137.25,142.2137059493657L139.5,141.23738243955097L141.75,142.89299747711004L144,144.48604034057385L146.25,143.7385648277442L148.5,144.55111656937214L150.75,144.83856639507445L153,144.25214540366096L155.25,144.26128240319605L157.5,143.9588120733447L159.75,144.3645077216157L162,144.67617100868125L164.25,144.65696722108035L166.5,144.72188749998693L168.75,144.20081324495987L171,145.0664337627091L173.25,145.56921873451768L175.5,144.69935195057735L177.75,144.94986936874596L180,144.6231309207789L182.25,143.42566120621063L184.5,143.36422144083426L186.75,144.4248983854988L189,145.7118605828342L191.25,146.59066306529985L193.5,143.3266803662311L195.75,143.54160070975144L198,143.752294198848L200.25,145.01307986878084L202.5,145.2334441053383L204.75,144.02135735499377L207,142.2913628761559L209.25,142.66448086502578L211.5,144.135388339324L213.75,144.50609904424022L216,145.03619183735867L218.25,145.83962399976863L220.5,146.3507514673837L222.75,146.5450652443215L225,146.48865855171877L227.25,145.31248341350988L229.5,145.98574334174072L231.75,145.99706793974565L234,146.68782610162577L236.25,146.22716701183722L238.5,146.68042370469394L240.75,146.61282735309837L243,146.5085714146206L245.25,145.09981467974293L247.5,145.9058160119353" style="fill: none;" fill="none"></path></g><g><path stroke="rgb(238, 51, 119)" stroke-width="2px" d="M33.75,-46.84981668334038L36,14.776990487844785L38.25,45.71124062491242L40.5,71.55998787054774L42.75,89.52844372837401L45,100.87546459779075L47.25,107.78265276972135L49.5,90.0636802624071L51.75,100.58874067406134L54,109.38137441811463L56.25,110.29884843645299L58.5,116.2660862164102L60.75,120.9377173384253L63,115.37553494964172L65.25,120.1367944909708L67.5,123.0095545160483L69.75,122.62813968056662L72,118.11652401899349L74.25,120.64270008739939L76.5,124.35126436620237L78.75,126.41636163190965L81,127.99917536329582L83.25,123.12292185771715L85.5,127.01961303806024L87.75,129.57142220316436L90,130.31879242142585L92.25,130.32377699862408L94.5,126.37809425102677L96.75,125.46689248599631L99,128.66678937957667L101.25,130.21549293400508L103.5,130.37863694902978L105.75,132.53345564749017L108,130.3141535931154L110.25,131.7340852615619L112.5,131.99683343898533L114.75,130.7990651435463L117,129.99618344474464L119.25,129.5014999916759L121.5,128.53844983081282L123.75,129.9924955224516L126,129.35078879460843L128.25,123.48208346782128L130.5,125.98714905172861L132.75,127.8060081666259L135,128.73311107372044L137.25,129.6861903584485L139.5,131.99921851465257L141.75,133.45607248857118L144,132.76582992761695L146.25,130.8853825123147L148.5,131.73822723312455L150.75,131.5216423963932L153,132.43276900195175L155.25,133.01929467523624L157.5,133.49954506662846L159.75,134.34482150646272L162,134.8810256239356L164.25,133.69813071205817L166.5,134.50419729036852L168.75,135.34881812662175L171,134.75607962507678L173.25,134.58332483601615L175.5,135.82428370672878L177.75,136.30320833065787L180,136.4312306701935L182.25,133.0957511339319L184.5,132.06205934407137L186.75,133.77720688944785L189,134.50519567431172L191.25,134.15824349534535L193.5,132.89808634708865L195.75,133.7766713849155L198,127.73081782034274L200.25,131.25761838314307L202.5,133.0389104563857L204.75,133.23224969578158L207,133.2946526361515L209.25,131.6125396809497L211.5,132.34657500209966L213.75,132.13574649121364L216,132.8773076205049L218.25,133.9821784754082L220.5,133.9388355320434L222.75,132.75576727221983L225,132.01745669645493L227.25,132.50079303905028L229.5,132.4045594778887L231.75,133.70750873942487L234,134.87283802382456L236.25,135.1188576307763L238.5,134.3258330361753L240.75,130.91160677528063L243,132.67210500970492L245.25,132.80011055035845L247.5,132.84761447126016" style="fill: none;" fill="none"></path></g></g></g></g><g opacity="0.2"><g><g><g><path stroke="rgb(255, 112, 67)" stroke-width="2px" d="M27,-261.02627472444016L29.25,85.98058172247626L31.5,126.76397195593876L33.75,123.40002702718431L36,135.83171251822603L38.25,118.58710246329957L40.5,138.0801049247384L42.75,137.5079597024755L45,103.97153682329439L47.25,138.73927922750062L49.5,106.26971460201524L51.75,126.58791544762525L54,136.09333626925945L56.25,131.8068631941622L58.5,144.40871564502066L60.75,137.08681328052825L63,80.66019147634506L65.25,139.87975231625816L67.5,143.77422228794205L69.75,143.93770548430356L72,141.40811124985868L74.25,138.00533568994564L76.5,145.16762345351955L78.75,144.97011108493263L81,138.26812137595633L83.25,139.90801099687815L85.5,133.4593005071987L87.75,144.0851657329635L90,139.1312597251751L92.25,140.83737963979894L94.5,143.407842035998L96.75,143.77962355247953L99,143.59424142336303L101.25,119.46906988593665L103.5,141.9284516539086L105.75,144.8243749006228L108,144.68854002993214L110.25,143.06416246701372L112.5,141.2390263514085L114.75,143.94358749755403L117,145.26580921966922L119.25,146.02406146174127L121.5,132.78102586215192L123.75,144.91131657226518L126,147.01938611539927L128.25,138.66935214197093L130.5,137.79131661084566L132.75,144.84351141208953L135,141.40545432201841L137.25,137.61617638848045L139.5,146.3124006749554L141.75,137.51502324234355L144,143.43452735719356L146.25,144.99588012017986L148.5,143.3050793612545L150.75,144.12965985523027L153,127.32037755576047L155.25,145.72153940796852L157.5,141.686047302051L159.75,145.24287192997608L162,144.10059490325776L164.25,132.72137082435867L166.5,142.70713797685775L168.75,140.38923744450915L171,145.16005203805187L173.25,145.69419249214909L175.5,136.18105256421998L177.75,140.5466577817093L180,146.97135645557535L182.25,143.29318572851744L184.5,145.57539481331003L186.75,137.56886559115213L189,147.6527265797962L191.25,143.07051015848464L193.5,131.68391811576757L195.75,140.5570654638789L198,144.69934255900708L200.25,144.97459606352177L202.5,143.85820260779423L204.75,143.20003953508356L207,146.86972105367616L209.25,147.49485111372036L211.5,145.38361978124487L213.75,146.6628499092026L216,141.8387867442586L218.25,145.82406095483086L220.5,146.38288084756243L222.75,145.18654294989327L225,146.63130284710363L227.25,147.95387721874496L229.5,147.0184366743673L231.75,144.78475005450574L234,148.32102606581014L236.25,146.8744381178509L238.5,148.0626349354332L240.75,147.01379496265542L243,140.71848852390593L245.25,147.87207609211856L247.5,146.07059010050514" style="fill: none;" fill="none"></path></g><g><path stroke="rgb(187, 187, 187)" stroke-width="2px" d="M27,-53.86193080381915L29.25,27.333639318292796L31.5,85.35493926568465L33.75,89.60937548767437L36,93.06587132540615L38.25,100.16348256306215L40.5,101.88670899380337L42.75,98.84013055400415L45,90.74755334041335L47.25,107.21274766055019L49.5,100.16828100789677L51.75,101.45442698489536L54,106.68294750831343L56.25,105.68989849903367L58.5,98.40214587070726L60.75,110.13328855687921L63,106.66794332590969L65.25,108.64025485786524L67.5,111.06029263951562L69.75,104.42540580576116L72,110.52202287045391L74.25,109.85515960238196L76.5,110.89628348296338L78.75,111.5532544797117L81,106.24647590247066L83.25,106.71360089020295L85.5,108.19334241476925L87.75,105.2244734628634L90,111.07717159119518L92.25,109.94018129327081L94.5,109.24571491100572L96.75,112.06224830990487L99,110.7705292647535L101.25,112.25858970121904L103.5,114.00213417004454L105.75,110.2767355333675L108,115.401941802014L110.25,107.1020699631084L112.5,111.96686414832418L114.75,116.31261851299894L117,111.46621635691686L119.25,115.71041971445084L121.5,114.58851497959006L123.75,115.48816310411149L126,115.614899918437L128.25,117.94338445771825L130.5,116.72203557057813L132.75,115.66167571327904L135,111.71595853160728L137.25,114.47401540523225L139.5,114.71541154113683L141.75,101.59010361541401L144,115.202875665643L146.25,118.5452788323164L148.5,117.25362308323383L150.75,108.74840674075213L153,108.41850160197778L155.25,113.52458944374864L157.5,111.03142360394651L159.75,116.56713200563735L162,116.31188608705997L164.25,117.08962296897715L166.5,115.37826907228339L168.75,115.93014749613675L171,116.08960536393252L173.25,116.81192201646891L175.5,113.17437832328406L177.75,118.22972984476522L180,115.24399098347533L182.25,114.00651666928422L184.5,115.11142791672185L186.75,110.57892302220517L189,115.08923510936174L191.25,119.15163407271558L193.5,96.7310512878678L195.75,114.21074595641005L198,112.94429711320184L200.25,110.0139965658838L202.5,118.23179450224745L204.75,116.36611876162615L207,117.38753646612167L209.25,118.78422149203041L211.5,117.61162866245616L213.75,118.18505789068612L216,117.68219775096935L218.25,113.10768536546014L220.5,113.8175869462165L222.75,110.4017121141607L225,118.4045023471117L227.25,118.51341679692268L229.5,118.82551464167508L231.75,116.3928568295457L234,116.72317489981651L236.25,115.22584309632128L238.5,114.75857343186033L240.75,117.21840635619381L243,116.44035299393263L245.25,117.98666389828378L247.5,114.53722406517375" style="fill: none;" fill="none"></path></g><g><path stroke="rgb(0, 153, 136)" stroke-width="2px" d="M27,-218.83685274557638L29.25,50.98184634338726L31.5,120.95823348245838L33.75,117.69279532134533L36,120.43557071550325L38.25,125.30177549882367L40.5,133.5139039158821L42.75,125.86401337927038L45,131.26023231582207L47.25,135.94337281178343L49.5,118.8597306880084L51.75,132.30943096632308L54,139.34002523056486L56.25,134.85875247554344L58.5,137.10989675399932L60.75,139.49515485289422L63,132.76569012891161L65.25,140.1095637645234L67.5,139.5265255902301L69.75,134.9628684805198L72,138.6738115007227L74.25,143.99417461996728L76.5,136.69283744963732L78.75,143.2920524274761L81,138.0247238786383L83.25,140.66405691883782L85.5,142.96576571396807L87.75,145.22896337238225L90,142.25978999652645L92.25,145.389001454142L94.5,137.81642706556752L96.75,142.60509265756065L99,144.950992658057L101.25,146.6479331356558L103.5,140.04920794882557L105.75,145.05763749168676L108,122.28635379536584L110.25,145.01032669435847L112.5,145.9854523668235L114.75,144.60923608392477L117,141.6600386459719L119.25,140.84352387962016L121.5,140.05633177066392L123.75,146.66614431887865L126,139.8911591720852L128.25,143.51129644635049L130.5,145.9914670004086L132.75,147.1503275971521L135,145.06152417172086L137.25,136.9817026230422L139.5,139.36728172342885L141.75,146.06424843723124L144,147.53743731162766L146.25,142.30681144039738L148.5,146.1075203425505L150.75,145.38916270841253L153,143.12888420440933L155.25,144.27878388627008L157.5,143.37944470684636L159.75,145.1415982198986L162,145.27314704250205L164.25,144.62018328972837L166.5,144.8462391712449L168.75,143.20272057571194L171,146.7244882238182L173.25,146.53227916156703L175.5,143.0331639708443L177.75,145.42972343211824L180,143.99727914143693L182.25,141.1319655721838L184.5,143.246536525813L186.75,146.45657404918563L189,148.17697476256978L191.25,148.2739669457078L193.5,137.07467851991004L195.75,143.95327028903094L198,144.15586744181135L200.25,147.4280541694977L202.5,145.6555411998521L204.75,141.69966349208897L207,138.97764167325062L209.25,143.37917042388156L211.5,146.95284084840253L213.75,145.21617756648496L216,146.05155908248642L218.25,147.37855965779585L220.5,147.32979154383594L222.75,146.91726393659007L225,146.38061424547976L227.25,143.05957651612434L229.5,147.27534034712747L231.75,146.01875966245478L234,148.010940131816L236.25,145.3447966853326L238.5,147.5486150959676L240.75,146.4833497933366L243,146.3088741796938L245.25,142.4014089222659L247.5,147.44967279109088" style="fill: none;" fill="none"></path></g><g><path stroke="rgb(238, 51, 119)" stroke-width="2px" d="M29.25,-4.380801699378253L31.5,89.85448197884993L33.75,99.88176683133298L36,118.37017779323187L38.25,100.19886807961898L40.5,118.45583545890722L42.75,122.75132973085749L45,122.11441153152421L47.25,120.81478349187157L49.5,56.45798108794473L51.75,120.61858677728608L54,126.15166989917105L56.25,112.05131918869235L58.5,127.67507666891271L60.75,129.87521787936038L63,104.72987798127261L65.25,129.25201382826674L67.5,128.51030747998846L69.75,121.89772196114063L72,109.47601615027948L74.25,125.48099982467565L76.5,131.45438848571342L78.75,130.3717906095765L81,131.03089558807287L83.25,113.78286151723428L85.5,134.48344898494807L87.75,134.45925180207598L90,131.7503367906267L92.25,130.33332468433812L94.5,118.8203454627232L96.75,123.72153187339956L99,134.79603209956124L101.25,133.18195823241365L103.5,130.69113133305854L105.75,136.66090608997777L108,126.0631880231879L110.25,134.45389574901623L112.5,132.50011489472607L114.75,128.50479770790446L117,128.45830222422427L119.25,128.55395765467122L121.5,126.69377360154283L123.75,132.777650071816L126,128.12163043428552L128.25,112.24086077375846L130.5,130.78548165884885L132.75,131.28994529897517L135,130.50893209197304L137.25,131.51176787912846L139.5,136.42971267754382L141.75,136.24660619280556L144,131.44370350648057L146.25,127.283475947651L148.5,133.3718102696267L150.75,131.10678456046364L153,134.17798818512395L155.25,134.14275638759136L157.5,134.4194415889003L159.75,135.96390786496076L162,135.90809881687164L164.25,131.43235241147605L166.5,136.04817904531956L168.75,136.96664870801297L171,133.62071753902867L173.25,134.25242134793237L175.5,138.2012807273052L177.75,137.22056540914556L180,136.67645130306482L182.25,126.70680053532124L184.5,130.0820724462921L186.75,137.06248950551856L189,135.89962317184967L191.25,133.49367328665474L193.5,130.4843159494075L195.75,135.45955876057798L198,116.15027615292504L200.25,138.01303520460021L202.5,136.45088973370466L204.75,133.60258170826867L207,133.41418246653947L209.25,128.39053323323077L211.5,133.75258434902537L213.75,131.73191462050784L216,134.2977322908965L218.25,136.0985054482113L220.5,133.85581420903856L222.75,130.48965693197468L225,130.60325830497524L227.25,133.42660055241802L229.5,132.22022872079503L231.75,136.20324537158012L234,137.10497020997784L236.25,135.5900963531299L238.5,132.8068325736306L240.75,124.37182061374187L243,136.04425468905404L245.25,133.04529900577936L247.5,132.93860594657335" style="fill: none;" fill="none"></path></g></g></g></g></g></g><g transform="translate(60, 178)" clip-path="url(#clip_1)"><clipPath id="clip_1"><rect width="270" height="22"></rect></clipPath><g><g><line x1="0" y1="0" x2="0" y2="5" style="visibility: inherit;" fill="rgb(0, 0, 0)" stroke="rgb(204, 204, 204)" stroke-width="1px"></line><line x1="22.5" y1="0" x2="22.5" y2="5" style="visibility: inherit;" fill="rgb(0, 0, 0)" stroke="rgb(204, 204, 204)" stroke-width="1px"></line><line x1="45" y1="0" x2="45" y2="5" style="visibility: inherit;" fill="rgb(0, 0, 0)" stroke="rgb(204, 204, 204)" stroke-width="1px"></line><line x1="67.5" y1="0" x2="67.5" y2="5" style="visibility: inherit;" fill="rgb(0, 0, 0)" stroke="rgb(204, 204, 204)" stroke-width="1px"></line><line x1="90" y1="0" x2="90" y2="5" style="visibility: inherit;" fill="rgb(0, 0, 0)" stroke="rgb(204, 204, 204)" stroke-width="1px"></line><line x1="112.5" y1="0" x2="112.5" y2="5" style="visibility: inherit;" fill="rgb(0, 0, 0)" stroke="rgb(204, 204, 204)" stroke-width="1px"></line><line x1="135" y1="0" x2="135" y2="5" style="visibility: inherit;" fill="rgb(0, 0, 0)" stroke="rgb(204, 204, 204)" stroke-width="1px"></line><line x1="157.5" y1="0" x2="157.5" y2="5" style="visibility: inherit;" fill="rgb(0, 0, 0)" stroke="rgb(204, 204, 204)" stroke-width="1px"></line><line x1="180" y1="0" x2="180" y2="5" style="visibility: inherit;" fill="rgb(0, 0, 0)" stroke="rgb(204, 204, 204)" stroke-width="1px"></line><line x1="202.5" y1="0" x2="202.5" y2="5" style="visibility: inherit;" fill="rgb(0, 0, 0)" stroke="rgb(204, 204, 204)" stroke-width="1px"></line><line x1="225" y1="0" x2="225" y2="5" style="visibility: inherit;" fill="rgb(0, 0, 0)" stroke="rgb(204, 204, 204)" stroke-width="1px"></line><line x1="247.5" y1="0" x2="247.5" y2="5" style="visibility: inherit;" fill="rgb(0, 0, 0)" stroke="rgb(204, 204, 204)" stroke-width="1px"></line><line x1="270" y1="0" x2="270" y2="5" style="visibility: inherit;" fill="rgb(0, 0, 0)" stroke="rgb(204, 204, 204)" stroke-width="1px"></line></g><g transform="translate(0, 8)"><text x="0" y="0" dx="0em" dy="0.95em" style="text-anchor: middle; visibility: hidden; font-family: &quot;Helvetica Neue&quot;, sans-serif; font-size: 12px; font-weight: 200;" fill="rgb(50, 49, 63)" stroke="none" stroke-width="1px">-10</text><text x="22.5" y="0" dx="0em" dy="0.95em" style="text-anchor: middle; visibility: inherit; font-family: &quot;Helvetica Neue&quot;, sans-serif; font-size: 12px; font-weight: 200;" fill="rgb(50, 49, 63)" stroke="none" stroke-width="1px">0</text><text x="45" y="0" dx="0em" dy="0.95em" style="text-anchor: middle; visibility: inherit; font-family: &quot;Helvetica Neue&quot;, sans-serif; font-size: 12px; font-weight: 200;" fill="rgb(50, 49, 63)" stroke="none" stroke-width="1px">10</text><text x="67.5" y="0" dx="0em" dy="0.95em" style="text-anchor: middle; visibility: inherit; font-family: &quot;Helvetica Neue&quot;, sans-serif; font-size: 12px; font-weight: 200;" fill="rgb(50, 49, 63)" stroke="none" stroke-width="1px">20</text><text x="90" y="0" dx="0em" dy="0.95em" style="text-anchor: middle; visibility: inherit; font-family: &quot;Helvetica Neue&quot;, sans-serif; font-size: 12px; font-weight: 200;" fill="rgb(50, 49, 63)" stroke="none" stroke-width="1px">30</text><text x="112.5" y="0" dx="0em" dy="0.95em" style="text-anchor: middle; visibility: inherit; font-family: &quot;Helvetica Neue&quot;, sans-serif; font-size: 12px; font-weight: 200;" fill="rgb(50, 49, 63)" stroke="none" stroke-width="1px">40</text><text x="135" y="0" dx="0em" dy="0.95em" style="text-anchor: middle; visibility: inherit; font-family: &quot;Helvetica Neue&quot;, sans-serif; font-size: 12px; font-weight: 200;" fill="rgb(50, 49, 63)" stroke="none" stroke-width="1px">50</text><text x="157.5" y="0" dx="0em" dy="0.95em" style="text-anchor: middle; visibility: inherit; font-family: &quot;Helvetica Neue&quot;, sans-serif; font-size: 12px; font-weight: 200;" fill="rgb(50, 49, 63)" stroke="none" stroke-width="1px">60</text><text x="180" y="0" dx="0em" dy="0.95em" style="text-anchor: middle; visibility: inherit; font-family: &quot;Helvetica Neue&quot;, sans-serif; font-size: 12px; font-weight: 200;" fill="rgb(50, 49, 63)" stroke="none" stroke-width="1px">70</text><text x="202.5" y="0" dx="0em" dy="0.95em" style="text-anchor: middle; visibility: inherit; font-family: &quot;Helvetica Neue&quot;, sans-serif; font-size: 12px; font-weight: 200;" fill="rgb(50, 49, 63)" stroke="none" stroke-width="1px">80</text><text x="225" y="0" dx="0em" dy="0.95em" style="text-anchor: middle; visibility: inherit; font-family: &quot;Helvetica Neue&quot;, sans-serif; font-size: 12px; font-weight: 200;" fill="rgb(50, 49, 63)" stroke="none" stroke-width="1px">90</text><text x="247.5" y="0" dx="0em" dy="0.95em" style="text-anchor: middle; visibility: inherit; font-family: &quot;Helvetica Neue&quot;, sans-serif; font-size: 12px; font-weight: 200;" fill="rgb(50, 49, 63)" stroke="none" stroke-width="1px">100</text><text x="270" y="0" dx="0em" dy="0.95em" style="text-anchor: middle; visibility: hidden; font-family: &quot;Helvetica Neue&quot;, sans-serif; font-size: 12px; font-weight: 200;" fill="rgb(50, 49, 63)" stroke="none" stroke-width="1px">110</text></g><line x1="0" y1="0" x2="270" y2="0" fill="rgb(0, 0, 0)" stroke="rgb(204, 204, 204)" stroke-width="1px"></line></g></g></g></g></svg>